<svg xmlns="http://www.w3.org/2000/svg" viewBox="0 0 248 216"><g id="Layer_2" data-name="Layer 2"><g id="Layer_1-2" data-name="Layer 1"><ellipse cx="164" cy="124" rx="16" ry="20" fill="#217f7f"/><ellipse cx="136" cy="154" rx="8" ry="10" fill="#217f7f"/><ellipse cx="212" cy="124" rx="16" ry="20" fill="#217f7f"/><ellipse cx="240" cy="154" rx="8" ry="10" fill="#217f7f"/><path d="M188,208c12.8,0,16.88,8,28,8,11.62,0,20-6,20-24,0-30.87-35.2-40-48-40s-48,9.13-48,40c0,18,8.38,24,20,24C171.12,216,175.2,208,188,208Z" fill="#217f7f"/><path d="M240,84a81.29,81.29,0,0,1-5.88,29.08C230.44,103,221.92,96,212,96c-13.24,0-24,12.56-24,28,0-15.44-10.76-28-24-28s-24,12.56-24,28a31.43,31.43,0,0,0,3.2,14,14,14,0,0,0-7.2-2c-8.84,0-16,8.08-16,18s7.16,18,16,18a4.84,4.84,0,0,0,.76,0A42.5,42.5,0,0,0,132,192c0,7.72,1.4,13.6,3.6,18.08A134.34,134.34,0,0,1,120,216C66.6,199.56,0,137.4,0,84,0,38.8,23,0,60,0s60,36,60,36S143,0,180,0,240,38.8,240,84Z" fill="#217f7f"/></g></g></svg>